<?xml version="1.0" standalone="no"?><!DOCTYPE svg PUBLIC "-//W3C//DTD SVG 1.1//EN" "http://www.w3.org/Graphics/SVG/1.1/DTD/svg11.dtd"><svg t="1715309498125" class="icon" viewBox="0 0 1024 1024" version="1.1" xmlns="http://www.w3.org/2000/svg" p-id="34492" xmlns:xlink="http://www.w3.org/1999/xlink" width="128" height="128"><path d="M920.9 365.5c-6.6-6.6-17.3-6.6-23.9 0l-387 387-115.8-115.6-115.7-115.7 387-387c6.6-6.6 6.6-17.3 0-23.9s-17.3-6.6-23.9 0l-399 399c-0.8 0.8-1.6 1.7-2.2 2.7 0 0-0.1 0.1-0.1 0.2-0.7 1.1-1.2 2.2-1.6 3.4 0 0.1-0.1 0.2-0.2 0.4l-46.6 139.8-88.9 88.8c-3.4 3.4-5.2 8-4.9 12.8 0.2 4.8 2.5 9.2 6.2 12.3l175.6 143.6c3.1 2.6 6.9 3.8 10.7 3.8 4.4 0 8.7-1.7 12-5l73-73 139.8-46.6c0.2-0.1 0.3-0.2 0.4-0.2 1.1-0.4 2.1-0.9 3.1-1.5 0.1-0.1 0.3-0.1 0.4-0.2 1-0.6 1.8-1.3 2.7-2.2l399-399c6.5-6.5 6.5-17.2-0.1-23.9zM289.4 877.4L140.1 755.3l66.6-66.6 135.7 135.7-53 53z m81.5-72.4L226.1 660.2 262 552.5l216.6 216.6L370.9 805z" fill="#1296db" p-id="34493"></path></svg>