<?xml version="1.0" standalone="no"?><!DOCTYPE svg PUBLIC "-//W3C//DTD SVG 1.1//EN" "http://www.w3.org/Graphics/SVG/1.1/DTD/svg11.dtd"><svg t="1715309355513" class="icon" viewBox="0 0 1024 1024" version="1.1" xmlns="http://www.w3.org/2000/svg" p-id="30604" xmlns:xlink="http://www.w3.org/1999/xlink" width="128" height="128"><path d="M471.66 825.19a25 25 0 0 1-23.25-15.8l-106.13-268c-0.21-0.53-0.33-0.83-1.22-0.83s-1 0.3-1.23 0.84l-106.12 268a25 25 0 1 1-46.49-18.4l106.13-268a51.31 51.31 0 0 1 95.42 0L494.9 791a25 25 0 0 1-23.24 34.21z" p-id="30605" fill="#707070"></path><path d="M318.27 736.64h-54.69a25 25 0 1 1 0-50h54.69a25 25 0 0 1 0 50zM253 478.31a25 25 0 0 1-25-25v-99.62C228 276.11 291.11 213 368.69 213H408l-2.31-2.32A25 25 0 1 1 441 175.33l27.33 27.33a35.35 35.35 0 0 1-25 60.34h-74.64A90.79 90.79 0 0 0 278 353.69v99.62a25 25 0 0 1-25 25zM640 825a24.9 24.9 0 0 1-17.62-7.27l-33-32.82a35.75 35.75 0 0 1 25.21-61.1h73.56a90.8 90.8 0 0 0 90.69-90.69V533.5a25 25 0 0 1 50 0v99.62c0 77.57-63.12 140.69-140.69 140.69h-39l8.51 8.46A25 25 0 0 1 640 825zM772.57 412.62H595.33a60.49 60.49 0 0 1-60.43-60.43V294.7a60.5 60.5 0 0 1 60.43-60.44h177.24A60.5 60.5 0 0 1 833 294.7v57.49a60.49 60.49 0 0 1-60.43 60.43zM595.33 284.26a10.45 10.45 0 0 0-10.43 10.44v57.49a10.44 10.44 0 0 0 10.43 10.43h177.24A10.44 10.44 0 0 0 783 352.19V294.7a10.45 10.45 0 0 0-10.43-10.44z" p-id="30606" fill="#707070"></path><path d="M684 513.32a25 25 0 0 1-25-25V175a25 25 0 0 1 50 0v313.32a25 25 0 0 1-25 25z" p-id="30607" fill="#707070"></path></svg>