<?xml version="1.0" standalone="no"?><!DOCTYPE svg PUBLIC "-//W3C//DTD SVG 1.1//EN" "http://www.w3.org/Graphics/SVG/1.1/DTD/svg11.dtd"><svg t="1715309946566" class="icon" viewBox="0 0 1024 1024" version="1.1" xmlns="http://www.w3.org/2000/svg" p-id="40628" xmlns:xlink="http://www.w3.org/1999/xlink" width="128" height="128"><path d="M113.1 356.531a12.8 12.8 0 0 1-12.8-12.8V175.104a74.906 74.906 0 0 1 74.804-74.803h168.627a12.8 12.8 0 0 1 0 25.6H175.104c-27.136 0-49.203 22.067-49.203 49.203v168.627a12.8 12.8 0 0 1-12.8 12.8z m797.8 0a12.8 12.8 0 0 1-12.8-12.8V175.104c0-27.136-22.068-49.203-49.204-49.203H680.269a12.8 12.8 0 0 1 0-25.6h168.627a74.906 74.906 0 0 1 74.803 74.803v168.627a12.8 12.8 0 0 1-12.8 12.8zM848.895 923.7H680.269a12.8 12.8 0 0 1 0-25.6h168.627c27.136 0 49.203-22.144 49.203-49.408V680.064a12.8 12.8 0 0 1 25.6 0v168.627a75.008 75.008 0 0 1-74.803 75.008z m-505.165 0H175.104a75.008 75.008 0 0 1-74.803-75.008V680.064a12.8 12.8 0 0 1 25.6 0v168.627c0 27.239 22.067 49.408 49.203 49.408h168.627a12.8 12.8 0 0 1 0 25.6zM432.026 477.235a96.947 96.947 0 0 0-96.82-96.819c-53.376 0-96.819 43.443-96.819 96.82s43.443 96.818 96.82 96.818c22.348 0 42.88-7.68 59.263-20.428l44.647 44.646 17.1-17.1-44.646-44.647a96.18 96.18 0 0 0 20.455-59.29z m-96.845 72.627a72.704 72.704 0 0 1-72.627-72.627 72.704 72.704 0 0 1 72.627-72.627 72.704 72.704 0 0 1 72.627 72.627 72.704 72.704 0 0 1-72.627 72.627z m230.17-12.748c-8.474 6.476-19.303 9.728-32.436 9.728-19.942 0-34.662-6.247-44.16-18.714-8.985-11.827-13.491-28.365-13.491-49.664 0-20.94 4.582-37.325 13.722-49.152 9.65-13.133 24.115-19.712 43.417-19.712 12.98 0 23.603 2.842 31.923 8.474 8.474 5.657 14.208 14.566 17.23 26.7H608c-2.842-18.124-10.726-32.435-23.706-42.905-13.312-10.803-30.438-16.23-51.404-16.23-28.442 0-50.074 9.395-64.87 28.185-13.313 16.46-19.943 38.016-19.943 64.614 0 27.11 6.4 48.564 19.2 64.384 14.797 18.637 36.736 27.956 65.869 27.956 19.276 0 35.763-5.479 49.408-16.461 14.643-11.623 23.936-27.853 27.955-48.64h-26.445c-3.482 13.977-9.754 24.448-18.714 31.437z m209.817 3.993l-2.995-28.441c-1.997-17.46-10.906-27.956-26.701-31.437v-0.512a39.424 39.424 0 0 0 23.194-15.719 43.264 43.264 0 0 0 7.475-24.96c0-16.793-5.479-29.696-16.461-38.681-10.317-8.141-24.627-12.211-42.906-12.211h-78.822V567.27h27.187v-73.6h48.154c10.317 0 18.125 2.176 23.45 6.477 5.324 4.66 8.473 11.802 9.471 21.453l2.253 22.195c0.999 10.317 3.584 18.125 7.731 23.45h29.44c-5.99-6.426-9.497-15.155-10.47-26.138z m-61.875-70.605h-48.154v-58.137h47.898c12.493 0 21.632 2.33 27.443 6.989 5.658 4.659 8.474 11.878 8.474 21.683 0 9.472-2.919 16.717-8.73 21.709-6.144 5.17-15.13 7.756-26.931 7.756zM238.362 618.368h547.276v25.216H238.362z" fill="#1296db" p-id="40629"></path></svg>