<?xml version="1.0" standalone="no"?><!DOCTYPE svg PUBLIC "-//W3C//DTD SVG 1.1//EN" "http://www.w3.org/Graphics/SVG/1.1/DTD/svg11.dtd"><svg t="1715309465538" class="icon" viewBox="0 0 1024 1024" version="1.1" xmlns="http://www.w3.org/2000/svg" p-id="33407" xmlns:xlink="http://www.w3.org/1999/xlink" width="128" height="128"><path d="M138.24 906.24c-5.12 0-10.24 0-15.36-5.12-5.12-5.12-10.24-20.48 0-25.6l245.76-332.8-153.6-153.6c-10.24-10.24-10.24-20.48 0-30.72 56.32-56.32 128-66.56 209.92-25.6l250.88-138.24-15.36-92.16c0-10.24 5.12-20.48 10.24-20.48 10.24-5.12 20.48 0 25.6 5.12l240.64 240.64c5.12 5.12 10.24 15.36 5.12 25.6s-10.24 15.36-20.48 10.24l-92.16-15.36-138.24 250.88c30.72 61.44 46.08 138.24-25.6 209.92-5.12 5.12-10.24 5.12-15.36 5.12-5.12 0-10.24 0-15.36-5.12l-153.6-153.6-332.8 245.76c0 5.12-5.12 5.12-10.24 5.12zM261.12 373.76L409.6 522.24c5.12 5.12 10.24 20.48 0 25.6l-174.08 235.52L471.04 614.4c10.24-5.12 20.48-5.12 25.6 0l148.48 148.48c30.72-40.96 30.72-87.04-5.12-153.6-5.12-5.12-5.12-15.36 0-20.48l148.48-271.36c15.36-5.12 20.48-10.24 30.72-10.24l40.96 5.12-148.48-148.48 5.12 40.96c0 10.24-5.12 15.36-10.24 20.48l-271.36 153.6c-5.12 5.12-15.36 5.12-20.48 0-61.44-35.84-112.64-35.84-153.6-5.12z" p-id="33408" fill="#1296db"></path></svg>