<?xml version="1.0" standalone="no"?><!DOCTYPE svg PUBLIC "-//W3C//DTD SVG 1.1//EN" "http://www.w3.org/Graphics/SVG/1.1/DTD/svg11.dtd"><svg t="1715307472890" class="icon" viewBox="0 0 1024 1024" version="1.1" xmlns="http://www.w3.org/2000/svg" p-id="21872" xmlns:xlink="http://www.w3.org/1999/xlink" width="128" height="128"><path d="M810.6 90.1c-25.6-19.5-58.1-25.7-89-17.1l-231.4 64.3c-6 1.7-12.3 1.7-18.2 0L240.6 73c-31-8.6-63.4-2.4-89 17.1s-40.3 49.1-40.3 81.2v379.4c0 115 57.1 221.7 152.8 285.5l152.2 101.5c19.7 13.1 42.2 19.7 64.8 19.7s45.1-6.6 64.8-19.7l152.2-101.5c95.7-63.8 152.8-170.5 152.8-285.5V171.3c0-32.2-14.7-61.8-40.3-81.2z m-27.7 460.6c0 92.2-45.8 177.7-122.5 228.9L508.2 881c-16.4 11-37.7 11-54.1 0L301.8 779.5c-76.7-51.1-122.5-136.7-122.5-228.9V171.3c0-10.7 4.9-20.6 13.4-27.1 6-4.6 13.2-7 20.5-7 3.1 0 6.2 0.4 9.2 1.3l231.4 64.3c17.9 5 36.8 5 54.6 0l231.4-64.3c10.3-2.9 21.2-0.8 29.7 5.7s13.4 16.4 13.4 27.1v379.4z" fill="#707070" p-id="21873"></path><path d="M630.1 361.3L466.9 470.2l-77-77c-13.3-13.3-34.8-13.3-48.1 0-13.3 13.3-13.3 34.8 0 48.1l96.5 96.5c6.6 6.6 15.3 10 24 10 6.7 0 13.4-2 19.2-5.9 1.5-0.7 3-1.6 4.5-2.5l181.9-121.3c15.6-10.4 19.8-31.5 9.4-47.1-10.4-15.9-31.5-20.1-47.2-9.7z" fill="#707070" p-id="21874"></path></svg>