<?xml version="1.0" standalone="no"?><!DOCTYPE svg PUBLIC "-//W3C//DTD SVG 1.1//EN" "http://www.w3.org/Graphics/SVG/1.1/DTD/svg11.dtd"><svg t="1715307382178" class="icon" viewBox="0 0 1024 1024" version="1.1" xmlns="http://www.w3.org/2000/svg" p-id="19716" xmlns:xlink="http://www.w3.org/1999/xlink" width="128" height="128"><path d="M794.1 1018.8H211.9c-93 0-168.6-75.7-168.6-168.6V268c0-93 75.6-168.6 168.6-168.6h266.3c12.8 0 23.1 10.3 23.1 23.1s-10.3 23.1-23.1 23.1H211.9c-67.5 0-122.4 54.9-122.4 122.4v582.2c0 67.5 54.9 122.4 122.4 122.4h582.2c67.5 0 122.4-54.9 122.4-122.4V482.5c0-12.8 10.3-23.1 23.1-23.1s23.1 10.3 23.1 23.1v367.7c0 92.9-75.6 168.6-168.6 168.6zM378.7 707.2c11.8-27.9 23.3-54.7 34.6-80.4 5.3 5.3 13.1 7.8 21 6.2 278.2-58.6 407.3-186.3 384.2-379.7 91.5-1.1 142.1-19.9 158.3-58.5 17.1-40.7-8.1-92.1-81.1-163.2C862.9 5.3 826.5-3.1 787.5 6.8 664.4 37.9 516.7 261.2 336.2 689.2c-5 11.7 0.6 25.3 12.3 30.2 2.9 1.2 6 1.8 9 1.8 9 0.1 17.5-5.2 21.2-14z m486.5-641c76.1 74.3 72.1 103.5 69.1 110.7-3.3 7.7-23.1 32.7-142.2 30.1-6.8-0.5-13.6 2.8-18.1 8.1-4.5 5.3-6.4 12.4-5.1 19.2 33.8 180.5-76.7 295.7-337.7 352.1 183.8-408.6 300.4-518 367.6-535 6.7-1.7 13.3-2.5 19.6-2.5 17 0.1 32.6 6 46.8 17.3z" fill="#707070" p-id="19717"></path></svg>